<svg xmlns="http://www.w3.org/2000/svg" xmlns:xlink="http://www.w3.org/1999/xlink" viewBox="0 0 32 32" fill="#4eac6d"><path d="M4 4L4 20L8 20L8 24L17.648438 24L24 29.080078L24 24L28 24L28 8L24 8L24 4L4 4 z M 6 6L22 6L22 8L8 8L8 9L8 18L6 18L6 6 z M 10 10L26 10L26 22L22 22L22 24.917969L18.351562 22L10 22L10 10 z M 15 13 A 1 1 0 0 0 15 15 A 1 1 0 0 0 15 13 z M 21 13 A 1 1 0 0 0 21 15 A 1 1 0 0 0 21 13 z M 15.607422 17.205078L14.392578 18.794922C14.392578 18.794922 15.914756 20 18 20C20.085244 20 21.607422 18.794922 21.607422 18.794922L20.392578 17.205078C20.392578 17.205078 19.296756 18 18 18C16.703244 18 15.607422 17.205078 15.607422 17.205078 z"/></svg>